<mxfile host="drawio-plugin" modified="2023-08-17T06:29:10.381Z" agent="5.0 (Windows NT 6.2; Win64; x64) AppleWebKit/537.36 (KHTML, like Gecko) Chrome/97.0.4692.45 Safari/537.36" version="20.5.3" etag="vIm2k2yGk6BPjiBVL1WN" type="embed"><diagram id="fqeTH-UbkXug6tqhIyyH" name="Page-1"><mxGraphModel dx="1022" dy="345" grid="1" gridSize="10" guides="1" tooltips="1" connect="1" arrows="1" fold="1" page="1" pageScale="1" pageWidth="850" pageHeight="1100" math="0" shadow="0"><root><mxCell id="0"/><mxCell id="1" parent="0"/><mxCell id="21" style="edgeStyle=orthogonalEdgeStyle;rounded=0;orthogonalLoop=1;jettySize=auto;html=1;" edge="1" parent="1" source="2"><mxGeometry relative="1" as="geometry"><mxPoint x="500" y="140" as="targetPoint"/><Array as="points"><mxPoint x="390" y="220"/><mxPoint x="390" y="140"/></Array></mxGeometry></mxCell><mxCell id="22" style="edgeStyle=orthogonalEdgeStyle;rounded=0;orthogonalLoop=1;jettySize=auto;html=1;entryX=0;entryY=0.5;entryDx=0;entryDy=0;" edge="1" parent="1" source="2" target="10"><mxGeometry relative="1" as="geometry"/></mxCell><mxCell id="23" style="edgeStyle=orthogonalEdgeStyle;rounded=0;orthogonalLoop=1;jettySize=auto;html=1;entryX=0;entryY=0.5;entryDx=0;entryDy=0;" edge="1" parent="1" source="2" target="11"><mxGeometry relative="1" as="geometry"><Array as="points"><mxPoint x="390" y="220"/><mxPoint x="390" y="330"/></Array></mxGeometry></mxCell><mxCell id="2" value="Instructructor-notices-topic-exchange" style="rounded=0;whiteSpace=wrap;html=1;" vertex="1" parent="1"><mxGeometry x="230" y="190" width="120" height="60" as="geometry"/></mxCell><mxCell id="5" value="Student 1" style="rounded=0;whiteSpace=wrap;html=1;" vertex="1" parent="1"><mxGeometry x="720" y="90" width="120" height="60" as="geometry"/></mxCell><mxCell id="20" style="edgeStyle=orthogonalEdgeStyle;rounded=0;orthogonalLoop=1;jettySize=auto;html=1;entryX=0;entryY=0.5;entryDx=0;entryDy=0;" edge="1" parent="1" source="6" target="2"><mxGeometry relative="1" as="geometry"/></mxCell><mxCell id="44" style="edgeStyle=orthogonalEdgeStyle;rounded=0;orthogonalLoop=1;jettySize=auto;html=1;entryX=0;entryY=0.5;entryDx=0;entryDy=0;" edge="1" parent="1" source="6" target="37"><mxGeometry relative="1" as="geometry"/></mxCell><mxCell id="46" style="edgeStyle=orthogonalEdgeStyle;rounded=0;orthogonalLoop=1;jettySize=auto;html=1;entryX=0;entryY=0.5;entryDx=0;entryDy=0;" edge="1" parent="1" source="6" target="45"><mxGeometry relative="1" as="geometry"/></mxCell><mxCell id="6" value="Instructor 2" style="rounded=0;whiteSpace=wrap;html=1;" vertex="1" parent="1"><mxGeometry x="10" y="250" width="120" height="60" as="geometry"/></mxCell><mxCell id="7" value="Student 2" style="rounded=0;whiteSpace=wrap;html=1;" vertex="1" parent="1"><mxGeometry x="720" y="190" width="120" height="60" as="geometry"/></mxCell><mxCell id="8" value="Student 3" style="rounded=0;whiteSpace=wrap;html=1;" vertex="1" parent="1"><mxGeometry x="720" y="300" width="120" height="60" as="geometry"/></mxCell><mxCell id="24" style="edgeStyle=orthogonalEdgeStyle;rounded=0;orthogonalLoop=1;jettySize=auto;html=1;entryX=0;entryY=0.5;entryDx=0;entryDy=0;" edge="1" parent="1" source="9" target="5"><mxGeometry relative="1" as="geometry"/></mxCell><mxCell id="9" value="student.1" style="rounded=0;whiteSpace=wrap;html=1;" vertex="1" parent="1"><mxGeometry x="500" y="90" width="120" height="60" as="geometry"/></mxCell><mxCell id="25" style="edgeStyle=orthogonalEdgeStyle;rounded=0;orthogonalLoop=1;jettySize=auto;html=1;entryX=0;entryY=0.5;entryDx=0;entryDy=0;" edge="1" parent="1" source="10" target="7"><mxGeometry relative="1" as="geometry"/></mxCell><mxCell id="10" value="student.2" style="rounded=0;whiteSpace=wrap;html=1;" vertex="1" parent="1"><mxGeometry x="500" y="190" width="120" height="60" as="geometry"/></mxCell><mxCell id="26" style="edgeStyle=orthogonalEdgeStyle;rounded=0;orthogonalLoop=1;jettySize=auto;html=1;entryX=0;entryY=0.5;entryDx=0;entryDy=0;" edge="1" parent="1" source="11" target="8"><mxGeometry relative="1" as="geometry"/></mxCell><mxCell id="11" value="student.3" style="rounded=0;whiteSpace=wrap;html=1;" vertex="1" parent="1"><mxGeometry x="500" y="300" width="120" height="60" as="geometry"/></mxCell><mxCell id="17" style="edgeStyle=orthogonalEdgeStyle;rounded=0;orthogonalLoop=1;jettySize=auto;html=1;exitX=1;exitY=0.5;exitDx=0;exitDy=0;entryX=0;entryY=0.5;entryDx=0;entryDy=0;" edge="1" parent="1" source="12" target="2"><mxGeometry relative="1" as="geometry"/></mxCell><mxCell id="39" style="edgeStyle=orthogonalEdgeStyle;rounded=0;orthogonalLoop=1;jettySize=auto;html=1;entryX=0;entryY=0.5;entryDx=0;entryDy=0;" edge="1" parent="1" source="12" target="38"><mxGeometry relative="1" as="geometry"/></mxCell><mxCell id="12" value="Instructor 1" style="rounded=0;whiteSpace=wrap;html=1;" vertex="1" parent="1"><mxGeometry x="10" y="130" width="120" height="60" as="geometry"/></mxCell><mxCell id="13" value="Producer" style="text;html=1;align=center;verticalAlign=middle;resizable=0;points=[];autosize=1;strokeColor=none;fillColor=none;" vertex="1" parent="1"><mxGeometry x="30" y="45" width="70" height="30" as="geometry"/></mxCell><mxCell id="14" value="Exchange" style="text;html=1;align=center;verticalAlign=middle;resizable=0;points=[];autosize=1;strokeColor=none;fillColor=none;" vertex="1" parent="1"><mxGeometry x="250" y="45" width="80" height="30" as="geometry"/></mxCell><mxCell id="15" value="Consumer's Queue" style="text;html=1;align=center;verticalAlign=middle;resizable=0;points=[];autosize=1;strokeColor=none;fillColor=none;" vertex="1" parent="1"><mxGeometry x="495" y="45" width="130" height="30" as="geometry"/></mxCell><mxCell id="16" value="Consumers" style="text;html=1;align=center;verticalAlign=middle;resizable=0;points=[];autosize=1;strokeColor=none;fillColor=none;" vertex="1" parent="1"><mxGeometry x="740" y="45" width="80" height="30" as="geometry"/></mxCell><mxCell id="27" value="Binding Keys" style="text;html=1;align=center;verticalAlign=middle;resizable=0;points=[];autosize=1;strokeColor=none;fillColor=none;" vertex="1" parent="1"><mxGeometry x="400" y="45" width="90" height="30" as="geometry"/></mxCell><mxCell id="29" value="instructor.1.#" style="text;html=1;align=center;verticalAlign=middle;resizable=0;points=[];autosize=1;strokeColor=none;fillColor=none;" vertex="1" parent="1"><mxGeometry x="400" y="140" width="90" height="30" as="geometry"/></mxCell><mxCell id="30" value="instructor.1.#" style="text;html=1;align=center;verticalAlign=middle;resizable=0;points=[];autosize=1;strokeColor=none;fillColor=none;" vertex="1" parent="1"><mxGeometry x="400" y="190" width="90" height="30" as="geometry"/></mxCell><mxCell id="31" value="instructor.2.#" style="text;html=1;align=center;verticalAlign=middle;resizable=0;points=[];autosize=1;strokeColor=none;fillColor=none;" vertex="1" parent="1"><mxGeometry x="400" y="300" width="90" height="30" as="geometry"/></mxCell><mxCell id="33" value="instructor.2.#" style="text;html=1;align=center;verticalAlign=middle;resizable=0;points=[];autosize=1;strokeColor=none;fillColor=none;" vertex="1" parent="1"><mxGeometry x="400" y="220" width="90" height="30" as="geometry"/></mxCell><mxCell id="34" value="instructor.1.notice_type" style="text;html=1;align=center;verticalAlign=middle;resizable=0;points=[];autosize=1;strokeColor=none;fillColor=none;" vertex="1" parent="1"><mxGeometry x="85" y="190" width="150" height="30" as="geometry"/></mxCell><mxCell id="35" value="instructor.2.notice_type" style="text;html=1;align=center;verticalAlign=middle;resizable=0;points=[];autosize=1;strokeColor=none;fillColor=none;" vertex="1" parent="1"><mxGeometry x="85" y="220" width="150" height="30" as="geometry"/></mxCell><mxCell id="36" value="Routing Keys" style="text;html=1;align=center;verticalAlign=middle;resizable=0;points=[];autosize=1;strokeColor=none;fillColor=none;" vertex="1" parent="1"><mxGeometry x="130" y="45" width="90" height="30" as="geometry"/></mxCell><mxCell id="42" style="edgeStyle=orthogonalEdgeStyle;rounded=0;orthogonalLoop=1;jettySize=auto;html=1;exitX=1;exitY=0.5;exitDx=0;exitDy=0;entryX=0.25;entryY=1;entryDx=0;entryDy=0;" edge="1" parent="1" source="37" target="10"><mxGeometry relative="1" as="geometry"><Array as="points"><mxPoint x="380" y="310"/><mxPoint x="380" y="280"/><mxPoint x="530" y="280"/></Array></mxGeometry></mxCell><mxCell id="43" style="edgeStyle=orthogonalEdgeStyle;rounded=0;orthogonalLoop=1;jettySize=auto;html=1;entryX=-0.01;entryY=0.89;entryDx=0;entryDy=0;entryPerimeter=0;" edge="1" parent="1" source="37" target="11"><mxGeometry relative="1" as="geometry"><Array as="points"><mxPoint x="380" y="310"/><mxPoint x="380" y="370"/><mxPoint x="499" y="370"/></Array></mxGeometry></mxCell><mxCell id="37" value="Instructructor-notices-fanout-exchange" style="rounded=0;whiteSpace=wrap;html=1;" vertex="1" parent="1"><mxGeometry x="230" y="280" width="120" height="60" as="geometry"/></mxCell><mxCell id="40" style="edgeStyle=orthogonalEdgeStyle;rounded=0;orthogonalLoop=1;jettySize=auto;html=1;" edge="1" parent="1" source="38"><mxGeometry relative="1" as="geometry"><mxPoint x="500" y="90" as="targetPoint"/><Array as="points"><mxPoint x="400" y="110"/><mxPoint x="400" y="90"/><mxPoint x="497" y="90"/></Array></mxGeometry></mxCell><mxCell id="38" value="Instructructor-notices-direct-exchange" style="rounded=0;whiteSpace=wrap;html=1;" vertex="1" parent="1"><mxGeometry x="230" y="80" width="120" height="60" as="geometry"/></mxCell><mxCell id="41" value="student.1" style="text;html=1;align=center;verticalAlign=middle;resizable=0;points=[];autosize=1;strokeColor=none;fillColor=none;" vertex="1" parent="1"><mxGeometry x="410" y="90" width="70" height="30" as="geometry"/></mxCell><mxCell id="49" style="edgeStyle=orthogonalEdgeStyle;rounded=0;orthogonalLoop=1;jettySize=auto;html=1;entryX=0.5;entryY=1;entryDx=0;entryDy=0;" edge="1" parent="1" source="45" target="11"><mxGeometry relative="1" as="geometry"/></mxCell><mxCell id="45" value="Instructructor-notices-header-exchange" style="rounded=0;whiteSpace=wrap;html=1;" vertex="1" parent="1"><mxGeometry x="230" y="380" width="120" height="60" as="geometry"/></mxCell><mxCell id="50" value="pass-code: 4321&lt;br&gt;user-token: 1234&lt;br&gt;x-match: all" style="text;html=1;align=center;verticalAlign=middle;resizable=0;points=[];autosize=1;strokeColor=none;fillColor=none;" vertex="1" parent="1"><mxGeometry x="385" y="410" width="110" height="60" as="geometry"/></mxCell><mxCell id="51" value="Figure: Showing data flow from producer to consumer via four kind of exchange, &lt;br&gt;routing keys between producer and exchange and&lt;br&gt;binding keys between exchange and queues" style="text;html=1;align=center;verticalAlign=middle;resizable=0;points=[];autosize=1;strokeColor=none;fillColor=none;" vertex="1" parent="1"><mxGeometry x="215" y="490" width="450" height="60" as="geometry"/></mxCell><mxCell id="52" value="student.1" style="text;html=1;align=center;verticalAlign=middle;resizable=0;points=[];autosize=1;strokeColor=none;fillColor=none;" vertex="1" parent="1"><mxGeometry x="145" y="80" width="70" height="30" as="geometry"/></mxCell><mxCell id="54" value="pass-code: 4321&lt;br&gt;user-token: 1234&lt;br&gt;x-match: all" style="text;html=1;align=center;verticalAlign=middle;resizable=0;points=[];autosize=1;strokeColor=none;fillColor=none;" vertex="1" parent="1"><mxGeometry x="105" y="410" width="110" height="60" as="geometry"/></mxCell></root></mxGraphModel></diagram></mxfile>